Coordinates
version=1
nRows=60
nColumns=12
inDegrees=yes

Units are S.I. units (second, meters, Newtons, ...)
Angles are in degrees

endheader
time	SC_y	SC_z	SC_x	AC_y	AC_z	AC_x	GH_y	GH_z	GH_yy	EL_x	PS_y
       0.0              -41.25          9.992          73.66          47.64         -4.877           -3.8          175.8          74.87          31.54          96.95          95.49
   0.04507              -41.25          9.994          73.66          47.64         -4.878         -3.802          175.7          74.86          31.52          96.94          95.49
   0.09014              -41.24          9.995          73.65          47.64         -4.879         -3.804          175.7          74.86          31.49          96.94          95.48
    0.1352              -41.24          9.997          73.64          47.64         -4.881         -3.807          175.6          74.85          31.47          96.93          95.48
    0.1803              -41.24          9.999          73.64          47.64         -4.882          -3.81          175.6          74.85          31.44          96.92          95.48
    0.2254              -41.23           10.0          73.63          47.64         -4.884         -3.813          175.5          74.84          31.41          96.92          95.47
    0.2704              -41.23           10.0          73.62          47.64         -4.885         -3.816          175.5          74.83          31.38          96.91          95.47
    0.3155              -41.22          10.01          73.62          47.63         -4.887         -3.819          175.4          74.83          31.35           96.9          95.47
    0.3606              -41.22          10.01          73.61          47.63         -4.889         -3.823          175.3          74.82          31.31          96.89          95.46
    0.4056              -41.21          10.01           73.6          47.63         -4.891         -3.827          175.2          74.81          31.27          96.88          95.46
    0.4507               -41.2          10.01          73.59          47.63         -4.893         -3.831          175.2           74.8          31.23          96.87          95.46
    0.4958               -41.2          10.02          73.58          47.63         -4.895         -3.836          175.1          74.79          31.19          96.86          95.45
    0.5408              -41.19          10.02          73.57          47.63         -4.897          -3.84          175.0          74.78          31.14          96.85          95.45
    0.5859              -41.18          10.02          73.56          47.63           -4.9         -3.846          174.9          74.77          31.09          96.83          95.44
     0.631              -41.17          10.03          73.55          47.63         -4.903         -3.851          174.8          74.76          31.03          96.82          95.44
    0.6761              -41.16          10.03          73.53          47.62         -4.906         -3.858          174.6          74.74          30.97          96.81          95.43
    0.7211              -41.15          10.04          73.52          47.62         -4.909         -3.864          174.5          74.73          30.91          96.79          95.42
    0.7662              -41.14          10.04           73.5          47.62         -4.913         -3.872          174.4          74.71          30.84          96.77          95.42
    0.8113              -41.13          10.05          73.48          47.62         -4.917          -3.88          174.2           74.7          30.76          96.75          95.41
    0.8563              -41.11          10.05          73.46          47.62         -4.921         -3.888          174.0          74.68          30.67          96.73           95.4
    0.9014               -41.1          10.06          73.44          47.61         -4.926         -3.898          173.8          74.66          30.58          96.71          95.39
    0.9465              -41.08          10.07          73.42          47.61         -4.931         -3.908          173.6          74.63          30.47          96.68          95.38
    0.9916              -41.07          10.07          73.39          47.61         -4.937          -3.92          173.4          74.61          30.36          96.65          95.37
     1.037              -41.05          10.08          73.36          47.61         -4.943         -3.933          173.1          74.58          30.23          96.62          95.35
     1.082              -41.02          10.09          73.33           47.6         -4.951         -3.947          172.9          74.55          30.09          96.58          95.34
     1.127               -41.0           10.1           73.3           47.6         -4.959         -3.963          172.5          74.51          29.94          96.55          95.32
     1.172              -40.97          10.11          73.26          47.59         -4.967         -3.981          172.2          74.48          29.76           96.5          95.31
     1.217              -40.94          10.13          73.21          47.59         -4.978         -4.002          171.8          74.43          29.56          96.45          95.29
     1.262              -40.91          10.14          73.16          47.58         -4.989         -4.024          171.3          74.38          29.34           96.4          95.26
     1.307              -40.87          10.16           73.1          47.58         -5.002          -4.05          170.8          74.33          29.09          96.33          95.24
     1.352              -40.82          10.18          73.04          47.57         -5.016          -4.08          170.2          74.26           28.8          96.26          95.21
     1.397              -40.77           10.2          72.96          47.56         -5.033         -4.114          169.6          74.19          28.47          96.18          95.17
     1.442              -40.71          10.23          72.88          47.55         -5.053         -4.153          168.8           74.1          28.08          96.08          95.13
     1.487              -40.64          10.26          72.78          47.54         -5.075         -4.199          167.9           74.0          27.64          95.97          95.09
     1.532              -40.56           10.3          72.66          47.53         -5.102         -4.252          166.9          73.89          27.12          95.84          95.03
     1.577              -40.46          10.34          72.52          47.51         -5.133         -4.315          165.6          73.75           26.5          95.68          94.97
     1.623              -40.35          10.39          72.35          47.49          -5.17         -4.389          164.1          73.59          25.77           95.5           94.9
     1.668              -40.21          10.45          72.15          47.47         -5.215         -4.479          162.4           73.4           24.9          95.28          94.81
     1.713              -40.04          10.52          71.91          47.45         -5.269         -4.587          160.2          73.16          23.84          95.01           94.7
     1.758              -39.84          10.61          71.62          47.41         -5.334         -4.719          157.6          72.88          22.54          94.69          94.57
     1.803              -39.59          10.72          71.26          47.37         -5.416         -4.883          154.4          72.52          20.95          94.28           94.4
     1.848              -39.27          10.86          70.81          47.32         -5.517         -5.086          150.4          72.08          18.95          93.78           94.2
     1.893              -38.88          11.03          70.24          47.26         -5.644         -5.342          145.3          71.53          16.45          93.15          93.94
     1.938              -38.38          11.25          69.52          47.18         -5.806         -5.668          138.9          70.82          13.26          92.35          93.61
     1.983              -37.74          11.53          68.59          47.08         -6.014         -6.086          130.7          69.92          9.177          91.32          93.19
     2.028              -36.92          11.89          67.41          46.94          -6.28         -6.621          120.1          68.76           3.94          90.01          92.66
     2.073              -35.87          12.35          65.89          46.78          -6.62         -7.305          106.6          67.28         -2.749          88.32          91.97
     2.118              -34.54          12.93          63.98          46.56         -7.047         -8.165          89.61          65.42         -11.16          86.21          91.11
     2.163              -32.93          13.64          61.66          46.31         -7.568         -9.212          68.92          63.15         -21.41          83.63          90.06
     2.208              -31.07          14.45          58.97          46.01         -8.172         -10.43          44.94          60.52         -33.29          80.64          88.84
     2.254              -29.05          15.34          56.05          45.68         -8.826         -11.74          18.98          57.68         -46.16          77.41          87.52
     2.299              -27.03          16.23          53.14          45.36          -9.48         -13.06         -6.986          54.83         -59.02          74.17           86.2
     2.344              -25.16          17.04          50.44          45.06         -10.08         -14.27         -30.96           52.2          -70.9          71.18          84.98
     2.389              -23.55          17.75          48.12           44.8          -10.6         -15.32         -51.65          49.93         -81.15           68.6          83.93
     2.434              -22.23          18.33          46.21          44.59         -11.03         -16.18         -68.63          48.07         -89.57          66.49          83.07
     2.479              -21.18          18.79           44.7          44.42         -11.37         -16.86         -82.13          46.59         -96.26           64.8          82.38
     2.524              -20.36          19.15          43.51          44.29         -11.64          -17.4          -92.7          45.43         -101.5          63.49          81.85
     2.569              -19.72          19.43          42.59          44.19         -11.85         -17.82         -100.9          44.53         -105.6          62.46          81.43
     2.614              -19.21          19.65          41.86          44.11         -12.01         -18.14         -107.4          43.82         -108.8          61.66           81.1
     2.659              -18.82          19.82          41.29          44.04         -12.13          -18.4         -112.4          43.27         -111.3          61.03          80.84
